<?xml version="1.0" standalone="no"?>
<!DOCTYPE svg PUBLIC "-//W3C//DTD SVG 20010904//EN"
 "http://www.w3.org/TR/2001/REC-SVG-20010904/DTD/svg10.dtd">
<svg version="1.0" xmlns="http://www.w3.org/2000/svg"
 width="1200.000000pt" height="1200.000000pt" viewBox="0 0 1200.000000 1200.000000"
 preserveAspectRatio="xMidYMid meet">

<g transform="translate(0.000000,1200.000000) scale(0.100000,-0.100000)"
fill="#000000" stroke="none">
<path d="M5862 9852 c-71 -26 -118 -66 -156 -132 l-31 -55 -3 -1607 -2 -1608
-1593 0 c-1766 0 -1643 5 -1725 -66 -121 -103 -129 -296 -18 -407 20 -20 56
-47 79 -59 l42 -23 1607 -3 1608 -2 2 -1608 3 -1607 29 -53 c53 -95 138 -145
246 -145 114 -1 198 52 249 155 l31 61 0 1598 0 1599 1608 2 1607 3 55 31
c172 97 197 331 49 457 -83 72 42 67 -1726 67 l-1593 0 0 1593 c0 1768 5 1643
-67 1726 -72 85 -198 119 -301 83z"/>
</g>
</svg>
